<mxfile host="app.diagrams.net" modified="2023-05-29T11:15:51.907Z" agent="Mozilla/5.0 (Windows NT 10.0; Win64; x64) AppleWebKit/537.36 (KHTML, like Gecko) Chrome/113.0.0.0 Safari/537.36" etag="SIsQ75PS-0g15VRkhtxl" version="21.3.2" type="device">
  <diagram name="Страница 1" id="wkINsgC1VOKoqD2EgKIF">
    <mxGraphModel dx="1185" dy="628" grid="1" gridSize="10" guides="1" tooltips="1" connect="1" arrows="1" fold="1" page="1" pageScale="1" pageWidth="827" pageHeight="1169" math="0" shadow="0">
      <root>
        <mxCell id="0" />
        <mxCell id="1" parent="0" />
        <mxCell id="m4ql6JY0w1BzMcaimgrd-23" value="MainWindow" style="swimlane;fontStyle=1;align=center;verticalAlign=top;childLayout=stackLayout;horizontal=1;startSize=26;horizontalStack=0;resizeParent=1;resizeParentMax=0;resizeLast=0;collapsible=1;marginBottom=0;whiteSpace=wrap;html=1;" vertex="1" parent="1">
          <mxGeometry x="370" y="470" width="160" height="34" as="geometry">
            <mxRectangle x="410" y="200" width="110" height="30" as="alternateBounds" />
          </mxGeometry>
        </mxCell>
        <mxCell id="m4ql6JY0w1BzMcaimgrd-24" value="" style="line;strokeWidth=1;fillColor=none;align=left;verticalAlign=middle;spacingTop=-1;spacingLeft=3;spacingRight=3;rotatable=0;labelPosition=right;points=[];portConstraint=eastwest;strokeColor=inherit;" vertex="1" parent="m4ql6JY0w1BzMcaimgrd-23">
          <mxGeometry y="26" width="160" height="8" as="geometry" />
        </mxCell>
        <mxCell id="m4ql6JY0w1BzMcaimgrd-25" value="DataWork" style="swimlane;fontStyle=1;align=center;verticalAlign=top;childLayout=stackLayout;horizontal=1;startSize=26;horizontalStack=0;resizeParent=1;resizeParentMax=0;resizeLast=0;collapsible=1;marginBottom=0;whiteSpace=wrap;html=1;" vertex="1" parent="1">
          <mxGeometry x="210" y="580" width="160" height="34" as="geometry">
            <mxRectangle x="334" y="310" width="100" height="30" as="alternateBounds" />
          </mxGeometry>
        </mxCell>
        <mxCell id="m4ql6JY0w1BzMcaimgrd-26" value="" style="line;strokeWidth=1;fillColor=none;align=left;verticalAlign=middle;spacingTop=-1;spacingLeft=3;spacingRight=3;rotatable=0;labelPosition=right;points=[];portConstraint=eastwest;strokeColor=inherit;" vertex="1" parent="m4ql6JY0w1BzMcaimgrd-25">
          <mxGeometry y="26" width="160" height="8" as="geometry" />
        </mxCell>
        <mxCell id="m4ql6JY0w1BzMcaimgrd-51" value="" style="edgeStyle=orthogonalEdgeStyle;orthogonalLoop=1;jettySize=auto;html=1;entryX=1;entryY=0.5;entryDx=0;entryDy=0;endArrow=diamondThin;endFill=1;strokeWidth=2;jumpSize=8;startSize=5;endSize=20;curved=1;" edge="1" parent="1" source="m4ql6JY0w1BzMcaimgrd-29" target="m4ql6JY0w1BzMcaimgrd-25">
          <mxGeometry relative="1" as="geometry" />
        </mxCell>
        <mxCell id="m4ql6JY0w1BzMcaimgrd-29" value="WorkersOzon" style="swimlane;fontStyle=1;align=center;verticalAlign=top;childLayout=stackLayout;horizontal=1;startSize=26;horizontalStack=0;resizeParent=1;resizeParentMax=0;resizeLast=0;collapsible=1;marginBottom=0;whiteSpace=wrap;html=1;" vertex="1" parent="1">
          <mxGeometry x="496" y="580" width="160" height="34" as="geometry" />
        </mxCell>
        <mxCell id="m4ql6JY0w1BzMcaimgrd-30" value="" style="line;strokeWidth=1;fillColor=none;align=left;verticalAlign=middle;spacingTop=-1;spacingLeft=3;spacingRight=3;rotatable=0;labelPosition=right;points=[];portConstraint=eastwest;strokeColor=inherit;" vertex="1" parent="m4ql6JY0w1BzMcaimgrd-29">
          <mxGeometry y="26" width="160" height="8" as="geometry" />
        </mxCell>
        <mxCell id="m4ql6JY0w1BzMcaimgrd-34" value="" style="endArrow=diamondThin;endFill=0;endSize=20;html=1;entryX=0.5;entryY=1;entryDx=0;entryDy=0;exitX=0.5;exitY=0;exitDx=0;exitDy=0;curved=1;" edge="1" parent="1" source="m4ql6JY0w1BzMcaimgrd-25" target="m4ql6JY0w1BzMcaimgrd-23">
          <mxGeometry width="160" relative="1" as="geometry">
            <mxPoint x="76" y="600" as="sourcePoint" />
            <mxPoint x="236" y="600" as="targetPoint" />
          </mxGeometry>
        </mxCell>
        <mxCell id="m4ql6JY0w1BzMcaimgrd-52" value="композиция" style="text;html=1;align=center;verticalAlign=middle;resizable=0;points=[];autosize=1;strokeColor=none;fillColor=none;" vertex="1" parent="1">
          <mxGeometry x="391" y="598" width="90" height="30" as="geometry" />
        </mxCell>
        <mxCell id="m4ql6JY0w1BzMcaimgrd-54" value="ассоциация" style="text;html=1;align=center;verticalAlign=middle;resizable=0;points=[];autosize=1;strokeColor=none;fillColor=none;" vertex="1" parent="1">
          <mxGeometry x="290" y="520" width="90" height="30" as="geometry" />
        </mxCell>
      </root>
    </mxGraphModel>
  </diagram>
</mxfile>
